<mxfile host="app.diagrams.net" agent="Mozilla/5.0 (Windows NT 10.0; Win64; x64) AppleWebKit/537.36 (KHTML, like Gecko) Chrome/136.0.0.0 Safari/537.36" version="27.1.3">
  <diagram name="Trang-1" id="PsneFKfoZAK16GkZ3s4L">
    <mxGraphModel dx="1830" dy="753" grid="1" gridSize="10" guides="1" tooltips="1" connect="1" arrows="1" fold="1" page="1" pageScale="1" pageWidth="827" pageHeight="1169" math="0" shadow="0">
      <root>
        <mxCell id="0" />
        <mxCell id="1" parent="0" />
        <mxCell id="i-__r6slWNRVwA6ePFB0-1" value="" style="ellipse;html=1;shape=endState;fillColor=strokeColor;" vertex="1" parent="1">
          <mxGeometry x="590" y="735.0038461538462" width="30" height="30" as="geometry" />
        </mxCell>
        <mxCell id="i-__r6slWNRVwA6ePFB0-2" value="" style="ellipse;fillColor=strokeColor;html=1;" vertex="1" parent="1">
          <mxGeometry x="590" y="390" width="30" height="30" as="geometry" />
        </mxCell>
        <mxCell id="i-__r6slWNRVwA6ePFB0-3" style="rounded=0;orthogonalLoop=1;jettySize=auto;html=1;exitX=1;exitY=0.5;exitDx=0;exitDy=0;" edge="1" parent="1">
          <mxGeometry relative="1" as="geometry">
            <mxPoint x="750" y="404" as="targetPoint" />
            <mxPoint x="620" y="404.09000000000003" as="sourcePoint" />
          </mxGeometry>
        </mxCell>
        <mxCell id="i-__r6slWNRVwA6ePFB0-4" value="&lt;div&gt;View Log / Display Log&lt;/div&gt;" style="edgeLabel;html=1;align=center;verticalAlign=middle;resizable=0;points=[];" vertex="1" connectable="0" parent="i-__r6slWNRVwA6ePFB0-3">
          <mxGeometry x="-0.0056" y="1" relative="1" as="geometry">
            <mxPoint x="-1" y="-13" as="offset" />
          </mxGeometry>
        </mxCell>
        <mxCell id="i-__r6slWNRVwA6ePFB0-5" value="Viewing Log" style="swimlane;fontStyle=1;align=center;verticalAlign=middle;childLayout=stackLayout;horizontal=1;startSize=30;horizontalStack=0;resizeParent=0;resizeLast=1;container=0;fontColor=#000000;collapsible=0;rounded=1;arcSize=30;strokeColor=#ff0000;fillColor=#ffffc0;swimlaneFillColor=#ffffc0;dropTarget=0;" vertex="1" parent="1">
          <mxGeometry x="750" y="375" width="100" height="60" as="geometry" />
        </mxCell>
        <mxCell id="i-__r6slWNRVwA6ePFB0-6" value="Reporting Error" style="swimlane;fontStyle=1;align=center;verticalAlign=middle;childLayout=stackLayout;horizontal=1;startSize=30;horizontalStack=0;resizeParent=0;resizeLast=1;container=0;fontColor=#000000;collapsible=0;rounded=1;arcSize=30;strokeColor=#ff0000;fillColor=#ffffc0;swimlaneFillColor=#ffffc0;dropTarget=0;" vertex="1" parent="1">
          <mxGeometry x="1110" y="375" width="160" height="60" as="geometry" />
        </mxCell>
        <mxCell id="i-__r6slWNRVwA6ePFB0-7" style="rounded=0;orthogonalLoop=1;jettySize=auto;html=1;exitX=1;exitY=0.5;exitDx=0;exitDy=0;entryX=0;entryY=0.5;entryDx=0;entryDy=0;" edge="1" parent="1" target="i-__r6slWNRVwA6ePFB0-6">
          <mxGeometry relative="1" as="geometry">
            <mxPoint x="950" y="404" as="targetPoint" />
            <mxPoint x="850" y="404.5" as="sourcePoint" />
          </mxGeometry>
        </mxCell>
        <mxCell id="i-__r6slWNRVwA6ePFB0-8" value="&lt;div&gt;Select Report Error / Create Report Error&lt;/div&gt;" style="edgeLabel;html=1;align=center;verticalAlign=middle;resizable=0;points=[];" vertex="1" connectable="0" parent="i-__r6slWNRVwA6ePFB0-7">
          <mxGeometry x="-0.0056" y="1" relative="1" as="geometry">
            <mxPoint x="-1" y="-13" as="offset" />
          </mxGeometry>
        </mxCell>
        <mxCell id="i-__r6slWNRVwA6ePFB0-9" value="" style="ellipse;html=1;shape=endState;fillColor=strokeColor;" vertex="1" parent="1">
          <mxGeometry x="785" y="230" width="30" height="30" as="geometry" />
        </mxCell>
        <mxCell id="i-__r6slWNRVwA6ePFB0-10" value="" style="endArrow=classic;html=1;rounded=0;exitX=0.5;exitY=0;exitDx=0;exitDy=0;entryX=0.5;entryY=1;entryDx=0;entryDy=0;" edge="1" parent="1" source="i-__r6slWNRVwA6ePFB0-5" target="i-__r6slWNRVwA6ePFB0-9">
          <mxGeometry width="50" height="50" relative="1" as="geometry">
            <mxPoint x="930" y="360" as="sourcePoint" />
            <mxPoint x="980" y="310" as="targetPoint" />
          </mxGeometry>
        </mxCell>
        <mxCell id="i-__r6slWNRVwA6ePFB0-11" value="Close Log" style="edgeLabel;html=1;align=center;verticalAlign=middle;resizable=0;points=[];" vertex="1" connectable="0" parent="i-__r6slWNRVwA6ePFB0-10">
          <mxGeometry x="-0.0312" y="-2" relative="1" as="geometry">
            <mxPoint x="28" as="offset" />
          </mxGeometry>
        </mxCell>
        <mxCell id="i-__r6slWNRVwA6ePFB0-12" value="Entering Error Info" style="swimlane;fontStyle=1;align=center;verticalAlign=middle;childLayout=stackLayout;horizontal=1;startSize=30;horizontalStack=0;resizeParent=0;resizeLast=1;container=0;fontColor=#000000;collapsible=0;rounded=1;arcSize=30;strokeColor=#ff0000;fillColor=#ffffc0;swimlaneFillColor=#ffffc0;dropTarget=0;" vertex="1" parent="1">
          <mxGeometry x="1110" y="540" width="160" height="60" as="geometry" />
        </mxCell>
        <mxCell id="i-__r6slWNRVwA6ePFB0-13" value="" style="endArrow=classic;html=1;rounded=0;exitX=0.5;exitY=1;exitDx=0;exitDy=0;" edge="1" parent="1" source="i-__r6slWNRVwA6ePFB0-6" target="i-__r6slWNRVwA6ePFB0-12">
          <mxGeometry width="50" height="50" relative="1" as="geometry">
            <mxPoint x="1000" y="490" as="sourcePoint" />
            <mxPoint x="1050" y="440" as="targetPoint" />
          </mxGeometry>
        </mxCell>
        <mxCell id="i-__r6slWNRVwA6ePFB0-14" value="Show Error Form" style="edgeLabel;html=1;align=center;verticalAlign=middle;resizable=0;points=[];" vertex="1" connectable="0" parent="i-__r6slWNRVwA6ePFB0-13">
          <mxGeometry x="0.0905" y="3" relative="1" as="geometry">
            <mxPoint x="47" as="offset" />
          </mxGeometry>
        </mxCell>
        <mxCell id="i-__r6slWNRVwA6ePFB0-15" value="Report Submitted" style="swimlane;fontStyle=1;align=center;verticalAlign=middle;childLayout=stackLayout;horizontal=1;startSize=30;horizontalStack=0;resizeParent=0;resizeLast=1;container=0;fontColor=#000000;collapsible=0;rounded=1;arcSize=30;strokeColor=#ff0000;fillColor=#ffffc0;swimlaneFillColor=#ffffc0;dropTarget=0;" vertex="1" parent="1">
          <mxGeometry x="1120" y="695" width="160" height="60" as="geometry" />
        </mxCell>
        <mxCell id="i-__r6slWNRVwA6ePFB0-16" value="Showing ErrorÂ " style="swimlane;fontStyle=1;align=center;verticalAlign=middle;childLayout=stackLayout;horizontal=1;startSize=30;horizontalStack=0;resizeParent=0;resizeLast=1;container=0;fontColor=#000000;collapsible=0;rounded=1;arcSize=30;strokeColor=#ff0000;fillColor=#ffffc0;swimlaneFillColor=#ffffc0;dropTarget=0;" vertex="1" parent="1">
          <mxGeometry x="750" y="540" width="160" height="60" as="geometry" />
        </mxCell>
        <mxCell id="i-__r6slWNRVwA6ePFB0-17" value="" style="endArrow=classic;html=1;rounded=0;exitX=0;exitY=0.5;exitDx=0;exitDy=0;entryX=1;entryY=0.5;entryDx=0;entryDy=0;" edge="1" parent="1" source="i-__r6slWNRVwA6ePFB0-12" target="i-__r6slWNRVwA6ePFB0-16">
          <mxGeometry width="50" height="50" relative="1" as="geometry">
            <mxPoint x="1010" y="490" as="sourcePoint" />
            <mxPoint x="1060" y="440" as="targetPoint" />
          </mxGeometry>
        </mxCell>
        <mxCell id="i-__r6slWNRVwA6ePFB0-18" value="[invalid infor] Show invalid infor" style="edgeLabel;html=1;align=center;verticalAlign=middle;resizable=0;points=[];" vertex="1" connectable="0" parent="i-__r6slWNRVwA6ePFB0-17">
          <mxGeometry x="0.015" y="-4" relative="1" as="geometry">
            <mxPoint y="-16" as="offset" />
          </mxGeometry>
        </mxCell>
        <mxCell id="i-__r6slWNRVwA6ePFB0-19" value="" style="endArrow=classic;html=1;rounded=0;exitX=0.5;exitY=1;exitDx=0;exitDy=0;entryX=0.444;entryY=0.088;entryDx=0;entryDy=0;entryPerimeter=0;" edge="1" parent="1" source="i-__r6slWNRVwA6ePFB0-12" target="i-__r6slWNRVwA6ePFB0-15">
          <mxGeometry width="50" height="50" relative="1" as="geometry">
            <mxPoint x="1010" y="490" as="sourcePoint" />
            <mxPoint x="1060" y="440" as="targetPoint" />
          </mxGeometry>
        </mxCell>
        <mxCell id="i-__r6slWNRVwA6ePFB0-20" value="[valid info] Save and Submit" style="edgeLabel;html=1;align=center;verticalAlign=middle;resizable=0;points=[];" vertex="1" connectable="0" parent="i-__r6slWNRVwA6ePFB0-19">
          <mxGeometry x="-0.0825" y="1" relative="1" as="geometry">
            <mxPoint x="79" y="4" as="offset" />
          </mxGeometry>
        </mxCell>
        <mxCell id="i-__r6slWNRVwA6ePFB0-21" value="" style="endArrow=classic;html=1;rounded=0;exitX=0.5;exitY=1;exitDx=0;exitDy=0;" edge="1" parent="1" source="i-__r6slWNRVwA6ePFB0-15">
          <mxGeometry width="50" height="50" relative="1" as="geometry">
            <mxPoint x="940" y="630" as="sourcePoint" />
            <mxPoint x="1200" y="860" as="targetPoint" />
          </mxGeometry>
        </mxCell>
        <mxCell id="i-__r6slWNRVwA6ePFB0-22" value="Engineer Create Invoice" style="edgeLabel;html=1;align=center;verticalAlign=middle;resizable=0;points=[];" vertex="1" connectable="0" parent="i-__r6slWNRVwA6ePFB0-21">
          <mxGeometry x="-0.0619" y="-4" relative="1" as="geometry">
            <mxPoint x="74" y="6" as="offset" />
          </mxGeometry>
        </mxCell>
        <mxCell id="i-__r6slWNRVwA6ePFB0-23" value="Invoice Created" style="swimlane;fontStyle=1;align=center;verticalAlign=middle;childLayout=stackLayout;horizontal=1;startSize=30;horizontalStack=0;resizeParent=0;resizeLast=1;container=0;fontColor=#000000;collapsible=0;rounded=1;arcSize=30;strokeColor=#ff0000;fillColor=#ffffc0;swimlaneFillColor=#ffffc0;dropTarget=0;" vertex="1" parent="1">
          <mxGeometry x="1120" y="860" width="160" height="60" as="geometry" />
        </mxCell>
        <mxCell id="i-__r6slWNRVwA6ePFB0-24" value="Awaiting Payment" style="swimlane;fontStyle=1;align=center;verticalAlign=middle;childLayout=stackLayout;horizontal=1;startSize=30;horizontalStack=0;resizeParent=0;resizeLast=1;container=0;fontColor=#000000;collapsible=0;rounded=1;arcSize=30;strokeColor=#ff0000;fillColor=#ffffc0;swimlaneFillColor=#ffffc0;dropTarget=0;" vertex="1" parent="1">
          <mxGeometry x="810" y="860" width="160" height="60" as="geometry" />
        </mxCell>
        <mxCell id="i-__r6slWNRVwA6ePFB0-25" value="" style="endArrow=classic;html=1;rounded=0;exitX=0;exitY=0.5;exitDx=0;exitDy=0;entryX=1;entryY=0.5;entryDx=0;entryDy=0;" edge="1" parent="1" source="i-__r6slWNRVwA6ePFB0-23" target="i-__r6slWNRVwA6ePFB0-24">
          <mxGeometry width="50" height="50" relative="1" as="geometry">
            <mxPoint x="950" y="720" as="sourcePoint" />
            <mxPoint x="1000" y="670" as="targetPoint" />
          </mxGeometry>
        </mxCell>
        <mxCell id="i-__r6slWNRVwA6ePFB0-26" value="Send Invoice To User" style="edgeLabel;html=1;align=center;verticalAlign=middle;resizable=0;points=[];" vertex="1" connectable="0" parent="i-__r6slWNRVwA6ePFB0-25">
          <mxGeometry x="-0.2951" y="3" relative="1" as="geometry">
            <mxPoint x="-17" y="-23" as="offset" />
          </mxGeometry>
        </mxCell>
        <mxCell id="i-__r6slWNRVwA6ePFB0-27" value="Processing Payment" style="swimlane;fontStyle=1;align=center;verticalAlign=middle;childLayout=stackLayout;horizontal=1;startSize=30;horizontalStack=0;resizeParent=0;resizeLast=1;container=0;fontColor=#000000;collapsible=0;rounded=1;arcSize=30;strokeColor=#ff0000;fillColor=#ffffc0;swimlaneFillColor=#ffffc0;dropTarget=0;" vertex="1" parent="1">
          <mxGeometry x="525" y="860" width="160" height="60" as="geometry" />
        </mxCell>
        <mxCell id="i-__r6slWNRVwA6ePFB0-28" value="" style="endArrow=classic;html=1;rounded=0;exitX=0;exitY=0.5;exitDx=0;exitDy=0;entryX=1;entryY=0.5;entryDx=0;entryDy=0;" edge="1" parent="1" source="i-__r6slWNRVwA6ePFB0-24" target="i-__r6slWNRVwA6ePFB0-27">
          <mxGeometry width="50" height="50" relative="1" as="geometry">
            <mxPoint x="790" y="860" as="sourcePoint" />
            <mxPoint x="840" y="810" as="targetPoint" />
          </mxGeometry>
        </mxCell>
        <mxCell id="i-__r6slWNRVwA6ePFB0-29" value="User confirm payment&lt;div&gt;&lt;br&gt;&lt;/div&gt;" style="edgeLabel;html=1;align=center;verticalAlign=middle;resizable=0;points=[];" vertex="1" connectable="0" parent="i-__r6slWNRVwA6ePFB0-28">
          <mxGeometry x="-0.1643" y="1" relative="1" as="geometry">
            <mxPoint x="-8" y="-21" as="offset" />
          </mxGeometry>
        </mxCell>
        <mxCell id="i-__r6slWNRVwA6ePFB0-30" value="" style="endArrow=classic;html=1;rounded=0;entryX=0.5;entryY=1;entryDx=0;entryDy=0;" edge="1" parent="1" target="i-__r6slWNRVwA6ePFB0-24">
          <mxGeometry width="50" height="50" relative="1" as="geometry">
            <mxPoint x="610" y="920" as="sourcePoint" />
            <mxPoint x="605" y="1000" as="targetPoint" />
            <Array as="points">
              <mxPoint x="610" y="980" />
              <mxPoint x="750" y="980" />
              <mxPoint x="890" y="980" />
            </Array>
          </mxGeometry>
        </mxCell>
        <mxCell id="i-__r6slWNRVwA6ePFB0-31" value="[Invalid Invoice] Require retry&lt;div&gt;&lt;br&gt;&lt;/div&gt;" style="edgeLabel;html=1;align=center;verticalAlign=middle;resizable=0;points=[];" vertex="1" connectable="0" parent="i-__r6slWNRVwA6ePFB0-30">
          <mxGeometry x="-0.2473" y="-1" relative="1" as="geometry">
            <mxPoint x="29" y="19" as="offset" />
          </mxGeometry>
        </mxCell>
        <mxCell id="i-__r6slWNRVwA6ePFB0-32" value="" style="endArrow=classic;html=1;rounded=0;exitX=0.5;exitY=0;exitDx=0;exitDy=0;entryX=0.5;entryY=1;entryDx=0;entryDy=0;" edge="1" parent="1" source="i-__r6slWNRVwA6ePFB0-27" target="i-__r6slWNRVwA6ePFB0-1">
          <mxGeometry width="50" height="50" relative="1" as="geometry">
            <mxPoint x="840" y="680" as="sourcePoint" />
            <mxPoint x="890" y="630" as="targetPoint" />
          </mxGeometry>
        </mxCell>
        <mxCell id="i-__r6slWNRVwA6ePFB0-33" value="[Valid Invoice] Pay successfully / Stored status (success)" style="edgeLabel;html=1;align=center;verticalAlign=middle;resizable=0;points=[];" vertex="1" connectable="0" parent="i-__r6slWNRVwA6ePFB0-32">
          <mxGeometry x="0.0478" y="-2" relative="1" as="geometry">
            <mxPoint x="123" y="-1" as="offset" />
          </mxGeometry>
        </mxCell>
        <mxCell id="i-__r6slWNRVwA6ePFB0-34" value="" style="ellipse;html=1;shape=endState;fillColor=strokeColor;" vertex="1" parent="1">
          <mxGeometry x="290" y="875" width="30" height="30" as="geometry" />
        </mxCell>
        <mxCell id="i-__r6slWNRVwA6ePFB0-35" value="" style="endArrow=classic;html=1;rounded=0;exitX=0;exitY=0.5;exitDx=0;exitDy=0;entryX=1;entryY=0.5;entryDx=0;entryDy=0;" edge="1" parent="1" source="i-__r6slWNRVwA6ePFB0-27" target="i-__r6slWNRVwA6ePFB0-34">
          <mxGeometry width="50" height="50" relative="1" as="geometry">
            <mxPoint x="610" y="680" as="sourcePoint" />
            <mxPoint x="660" y="630" as="targetPoint" />
          </mxGeometry>
        </mxCell>
        <mxCell id="i-__r6slWNRVwA6ePFB0-36" value="User cancel payment / Stored status (fail)" style="edgeLabel;html=1;align=center;verticalAlign=middle;resizable=0;points=[];" vertex="1" connectable="0" parent="i-__r6slWNRVwA6ePFB0-35">
          <mxGeometry x="0.1121" y="-4" relative="1" as="geometry">
            <mxPoint x="12" y="-11" as="offset" />
          </mxGeometry>
        </mxCell>
      </root>
    </mxGraphModel>
  </diagram>
</mxfile>
